# xmcd CD database file
#
# Track frame offsets:
#	200
#	11670
#	42567
#	80977
#	112700
#	146610
#	184402
#	202925
#	240732
#	270535
#
# Disc length: 4122 seconds
#
# Revision: 0
# Processed by: cddbd v1.5.1PL0 Copyright (c) Steve Scherf et al.
# Submitted via: CDex 1.51
#
DISCID=8a10180a
DTITLE=James Carney - Fables From The Aqueduct
DYEAR=1994
DGENRE=Jazz
TTITLE0=Hymm - Introduction
TTITLE1=Daryl and The God Squad
TTITLE2=Pocahontas
TTITLE3=Queen Of The Tangent
TTITLE4=Zelzah
TTITLE5=Disneyesque
TTITLE6=Walpurgis Night
TTITLE7=Devil's Advocate
TTITLE8=Harbingers
TTITLE9=Surabaya
EXTD=YEAR: 1994
EXTT0=
EXTT1=
EXTT2=
EXTT3=
EXTT4=
EXTT5=
EXTT6=
EXTT7=
EXTT8=
EXTT9=
PLAYORDER=
